<?xml version="1.0" standalone="no"?>
<!DOCTYPE svg PUBLIC "-//W3C//DTD SVG 20010904//EN"
 "http://www.w3.org/TR/2001/REC-SVG-20010904/DTD/svg10.dtd">
<svg version="1.0" xmlns="http://www.w3.org/2000/svg"
 width="512.000000pt" height="512.000000pt" viewBox="0 0 512.000000 512.000000"
 preserveAspectRatio="xMidYMid meet">
<metadata>
Created by potrace 1.11, written by Peter Selinger 2001-2013
</metadata>
<g transform="translate(0.000000,512.000000) scale(0.100000,-0.100000)"
fill="#000000" stroke="none">
<path d="M714 5105 c-152 -33 -308 -156 -381 -298 -13 -27 -33 -83 -44 -125
-18 -73 -19 -127 -19 -1767 0 -1641 1 -1694 19 -1768 23 -88 49 -143 101 -213
44 -59 142 -136 215 -170 113 -52 141 -54 898 -54 l702 -1 55 -81 c197 -294
537 -517 910 -599 137 -30 403 -32 550 -5 185 34 399 121 562 230 134 88 306
261 395 395 60 90 139 249 171 346 104 307 102 660 -3 955 -39 109 -127 277
-197 374 -68 96 -242 270 -338 338 -138 98 -339 190 -497 227 l-53 13 0 497 0
498 -29 39 c-50 66 -1094 1158 -1121 1171 -37 19 -1809 17 -1896 -2z m1746
-563 c0 -298 3 -379 15 -427 50 -190 205 -322 406 -345 46 -5 213 -10 372 -10
l287 0 0 -414 0 -413 -152 -6 c-116 -4 -177 -11 -253 -30 -234 -59 -438 -158
-596 -289 l-47 -38 -690 0 c-476 0 -698 -3 -715 -11 -54 -25 -75 -114 -37
-162 12 -15 38 -31 58 -37 23 -6 246 -10 605 -10 312 0 567 -2 567 -5 0 -3
-18 -31 -39 -63 -21 -31 -62 -101 -91 -154 l-52 -98 -476 0 c-296 0 -491 -4
-514 -10 -50 -14 -78 -52 -78 -104 1 -44 11 -62 50 -89 22 -15 68 -17 488 -17
l465 0 -7 -32 c-24 -114 -30 -170 -29 -313 0 -200 28 -359 90 -522 4 -11 -108
-13 -668 -11 l-674 3 -55 26 c-102 48 -178 149 -200 268 -14 74 -14 3298 0
3372 29 152 148 275 289 299 25 4 414 8 864 9 l817 1 0 -368z m610 -217 l323
-340 -249 -3 c-284 -3 -312 1 -380 61 -88 77 -89 81 -92 412 l-3 290 39 -40
c22 -22 185 -193 362 -380z m609 -1625 c87 -15 242 -65 326 -107 438 -219 705
-645 705 -1128 0 -208 -42 -380 -136 -567 -112 -219 -281 -395 -499 -522 -266
-153 -609 -200 -915 -125 -482 120 -848 514 -934 1005 -20 110 -20 301 -2 414
62 383 315 730 662 907 148 76 276 114 464 137 52 6 256 -2 329 -14z"/>
<path d="M1059 3071 c-23 -23 -29 -38 -29 -71 0 -52 13 -76 50 -95 25 -13 110
-15 601 -15 l571 0 34 34 c24 24 34 43 34 66 0 40 -26 85 -57 99 -16 8 -207
11 -599 11 l-576 0 -29 -29z"/>
<path d="M3415 2276 c-62 -28 -60 -5 -65 -655 l-5 -595 -220 236 c-121 130
-232 241 -248 248 -71 32 -147 -18 -147 -97 0 -48 -39 -3 398 -470 175 -187
283 -295 299 -299 64 -17 78 -5 423 365 358 385 361 390 325 456 -29 54 -95
71 -147 37 -15 -9 -91 -87 -169 -172 -78 -85 -175 -190 -216 -233 l-73 -79 0
586 c0 654 1 644 -64 671 -43 18 -52 18 -91 1z"/>
</g>
</svg>
